<svg xmlns="http://www.w3.org/2000/svg" viewBox="0 0 256 256" role="img" aria-labelledby="title desc">
  <title id="title">Lettuce network growth logo</title>
  <desc id="desc">A hydroponic lettuce tray with network nodes, branches, and an upward arrow.</desc>
  <defs>
    <linearGradient id="network" x1="42" y1="222" x2="214" y2="34" gradientUnits="userSpaceOnUse">
      <stop offset="0" stop-color="#0e3a5a"/>
      <stop offset="0.52" stop-color="#229d8a"/>
      <stop offset="1" stop-color="#92c852"/>
    </linearGradient>
    <linearGradient id="leaf" x1="83" y1="79" x2="165" y2="160" gradientUnits="userSpaceOnUse">
      <stop offset="0" stop-color="#a1cf59"/>
      <stop offset="1" stop-color="#4fa945"/>
    </linearGradient>
    <linearGradient id="trayTop" x1="76" y1="90" x2="189" y2="158" gradientUnits="userSpaceOnUse">
      <stop offset="0" stop-color="#0b304c"/>
      <stop offset="1" stop-color="#0c4863"/>
    </linearGradient>
    <linearGradient id="traySide" x1="78" y1="135" x2="188" y2="197" gradientUnits="userSpaceOnUse">
      <stop offset="0" stop-color="#2da57f"/>
      <stop offset="1" stop-color="#123a57"/>
    </linearGradient>
    <filter id="softShadow" x="-20%" y="-20%" width="140%" height="140%">
      <feDropShadow dx="0" dy="6" stdDeviation="4" flood-color="#0f2f45" flood-opacity="0.2"/>
    </filter>
  </defs>

  <g fill="none" stroke="url(#network)" stroke-linecap="round" stroke-linejoin="round">
    <path d="M128 20 222 74v108l-94 54-94-54V74Z" stroke-width="9"/>
    <path d="M128 20 52 196M128 20l76 176M34 74l188 108M222 74 34 182M34 74l188 108M34 182 222 74M128 20v216" stroke-width="6" opacity="0.78"/>
    <path d="M59 83h56l21-12 57 12M59 83l26 63-31 50M197 83l-26 63 31 50M85 146h86M83 211l45-28 45 28" stroke-width="6" opacity="0.86"/>
  </g>

  <g fill="url(#network)">
    <circle cx="128" cy="20" r="16"/>
    <circle cx="222" cy="74" r="15"/>
    <circle cx="222" cy="182" r="15"/>
    <circle cx="128" cy="236" r="15"/>
    <circle cx="34" cy="182" r="15"/>
    <circle cx="34" cy="74" r="15"/>
    <circle cx="87" cy="86" r="11"/>
    <circle cx="169" cy="86" r="11"/>
    <circle cx="128" cy="72" r="8"/>
    <circle cx="85" cy="146" r="8"/>
    <circle cx="171" cy="146" r="8"/>
    <circle cx="83" cy="211" r="11"/>
    <circle cx="173" cy="211" r="11"/>
  </g>

  <g filter="url(#softShadow)">
    <path d="M73 101 128 73l55 28-55 29Z" fill="url(#trayTop)"/>
    <path d="M73 101v22l55 31 55-31v-22l-55 29Z" fill="#0c2941"/>
    <path d="M85 103 128 81l43 22-43 22Z" fill="#edf7e6"/>
    <path d="M85 103 128 125l43-22 9 5-52 27-52-27Z" fill="#89c64f"/>

    <path d="M73 132 128 160l55-28v25l-55 31-55-31Z" fill="url(#traySide)"/>
    <path d="M88 138 128 158l40-20 9 5-49 26-49-26Z" fill="#f3fbef"/>
    <path d="M73 166 128 194l55-28v24l-55 31-55-31Z" fill="#0d3653"/>
    <path d="M88 171 128 191l40-20 9 5-49 26-49-26Z" fill="#f3fbef"/>
  </g>

  <g fill="url(#leaf)" stroke="#f7fff0" stroke-width="3" stroke-linejoin="round">
    <path d="M128 98c-7-17-3-31 0-31s7 14 0 31Z"/>
    <path d="M122 86c-20-10-23-25-21-28 3-3 20 1 27 20Z"/>
    <path d="M134 86c20-10 23-25 21-28-3-3-20 1-27 20Z"/>
    <path d="M101 112c-20-9-27-25-24-29 4-4 22 1 31 20Z"/>
    <path d="M112 124c-17-4-25-16-23-20 3-4 20-2 29 12Z"/>
    <path d="M155 112c20-9 27-25 24-29-4-4-22 1-31 20Z"/>
    <path d="M144 124c17-4 25-16 23-20-3-4-20-2-29 12Z"/>
  </g>

  <g fill="none" stroke-linecap="round" stroke-linejoin="round">
    <path d="M158 177 219 116" stroke="#f5fff0" stroke-width="20"/>
    <path d="M158 177 219 116" stroke="url(#network)" stroke-width="12"/>
    <path d="M196 112h28v28" stroke="#f5fff0" stroke-width="20"/>
    <path d="M196 112h28v28" stroke="url(#network)" stroke-width="12"/>
  </g>
</svg>
